<svg width="118" height="118" viewBox="0 0 118 118" fill="none" xmlns="http://www.w3.org/2000/svg">
<circle cx="59" cy="59" r="59" fill="url(#paint0_linear_11_62)"/>
<ellipse cx="66" cy="23.3216" rx="8.00945" ry="9.50318" transform="rotate(17.9804 66 23.3216)" fill="#FF7CBD"/>
<ellipse cx="46.1715" cy="27.2266" rx="6.0561" ry="5.57771" transform="rotate(49.6705 46.1715 27.2266)" fill="#FFFF00"/>
<ellipse cx="81.5" cy="83.4448" rx="13.1487" ry="13.0863" transform="rotate(6.27398 81.5 83.4448)" fill="#00FFFF"/>
<path d="M59.5004 71.2989C93.0004 50.5 44.5004 88.9999 53.2563 97.0656C50.9059 96.8072 48.4642 78.4722 50.0003 64.5C59.5001 107.5 56.4999 24.0321 56.4999 34C29 85.5 83.2072 19.5642 59.5004 71.2989Z" fill="#FFFF00"/>
<ellipse cx="27.9322" cy="65.8278" rx="15.1414" ry="10.2345" transform="rotate(6.27398 27.9322 65.8278)" fill="#00E4FF"/>
<path d="M89.4591 35.6003C90.0285 39.2455 86.3648 42.8449 81.2759 43.6398C76.1871 44.4346 71.6003 42.1239 71.0309 38.4787C70.4615 34.8335 74.1253 31.2341 79.2141 30.4392C84.3029 29.6444 88.8897 31.955 89.4591 35.6003Z" fill="#0FFF0F"/>
<path d="M99.6445 57.359C99.5162 62.1522 93.7235 65.8855 86.7061 65.6977C79.6887 65.5099 74.104 61.472 74.2323 56.6788C74.3606 51.8856 80.1533 48.1523 87.1707 48.3401C94.1881 48.5279 99.7728 52.5658 99.6445 57.359Z" fill="#8A2BE2"/>
<ellipse cx="34.6139" cy="43.2021" rx="9.89024" ry="7.16414" transform="rotate(16.1098 34.6139 43.2021)" fill="#FF073A"/>
<path d="M45.912 106.432V107.968C45.8533 107.984 45.76 108 45.632 108.016C45.5093 108.032 45.3867 108.04 45.264 108.04C45.1413 108.04 45.032 108.029 44.936 108.008C44.8453 107.992 44.768 107.96 44.704 107.912C44.6453 107.864 44.6 107.797 44.568 107.712C44.536 107.627 44.52 107.515 44.52 107.376V103.608C44.52 103.496 44.5493 103.411 44.608 103.352C44.672 103.288 44.7573 103.237 44.864 103.2C45.0453 103.136 45.256 103.091 45.496 103.064C45.736 103.032 45.992 103.016 46.264 103.016C47 103.016 47.5547 103.171 47.928 103.48C48.3013 103.789 48.488 104.208 48.488 104.736C48.488 105.067 48.4027 105.349 48.232 105.584C48.0613 105.819 47.8587 106 47.624 106.128C47.816 106.389 48.0053 106.635 48.192 106.864C48.3787 107.093 48.5253 107.301 48.632 107.488C48.5787 107.675 48.48 107.819 48.336 107.92C48.1973 108.016 48.04 108.064 47.864 108.064C47.7467 108.064 47.6453 108.051 47.56 108.024C47.4747 107.997 47.4 107.96 47.336 107.912C47.272 107.864 47.2133 107.805 47.16 107.736C47.1067 107.667 47.056 107.592 47.008 107.512L46.336 106.432H45.912ZM46.416 105.368C46.6187 105.368 46.7787 105.317 46.896 105.216C47.0133 105.109 47.072 104.955 47.072 104.752C47.072 104.549 47.0053 104.397 46.872 104.296C46.744 104.189 46.5387 104.136 46.256 104.136C46.176 104.136 46.112 104.139 46.064 104.144C46.016 104.149 45.9627 104.157 45.904 104.168V105.368H46.416ZM49.259 103.032C49.259 102.829 49.3257 102.659 49.459 102.52C49.5977 102.381 49.779 102.312 50.003 102.312C50.227 102.312 50.4057 102.381 50.539 102.52C50.6777 102.659 50.747 102.829 50.747 103.032C50.747 103.235 50.6777 103.405 50.539 103.544C50.4057 103.683 50.227 103.752 50.003 103.752C49.779 103.752 49.5977 103.683 49.459 103.544C49.3257 103.405 49.259 103.235 49.259 103.032ZM50.683 107.992C50.6243 108.003 50.5363 108.016 50.419 108.032C50.307 108.053 50.1923 108.064 50.075 108.064C49.9577 108.064 49.851 108.056 49.755 108.04C49.6643 108.024 49.587 107.992 49.523 107.944C49.459 107.896 49.4083 107.832 49.371 107.752C49.339 107.667 49.323 107.557 49.323 107.424V104.168C49.3817 104.157 49.467 104.144 49.579 104.128C49.6963 104.107 49.8137 104.096 49.931 104.096C50.0483 104.096 50.1523 104.104 50.243 104.12C50.339 104.136 50.419 104.168 50.483 104.216C50.547 104.264 50.595 104.331 50.627 104.416C50.6643 104.496 50.683 104.603 50.683 104.736V107.992ZM54.8288 106.84C54.8288 107.245 54.6768 107.563 54.3728 107.792C54.0688 108.021 53.6208 108.136 53.0288 108.136C52.8048 108.136 52.5968 108.12 52.4048 108.088C52.2128 108.056 52.0475 108.008 51.9088 107.944C51.7755 107.875 51.6688 107.789 51.5888 107.688C51.5141 107.587 51.4768 107.467 51.4768 107.328C51.4768 107.2 51.5035 107.093 51.5568 107.008C51.6101 106.917 51.6741 106.843 51.7488 106.784C51.9035 106.869 52.0795 106.947 52.2768 107.016C52.4795 107.08 52.7115 107.112 52.9728 107.112C53.1381 107.112 53.2635 107.088 53.3488 107.04C53.4395 106.992 53.4848 106.928 53.4848 106.848C53.4848 106.773 53.4528 106.715 53.3888 106.672C53.3248 106.629 53.2181 106.595 53.0688 106.568L52.8288 106.52C52.3648 106.429 52.0181 106.288 51.7888 106.096C51.5648 105.899 51.4528 105.619 51.4528 105.256C51.4528 105.059 51.4955 104.88 51.5808 104.72C51.6661 104.56 51.7861 104.427 51.9408 104.32C52.0955 104.213 52.2795 104.131 52.4928 104.072C52.7115 104.013 52.9515 103.984 53.2128 103.984C53.4101 103.984 53.5941 104 53.7648 104.032C53.9408 104.059 54.0928 104.101 54.2208 104.16C54.3488 104.219 54.4501 104.296 54.5248 104.392C54.5995 104.483 54.6368 104.592 54.6368 104.72C54.6368 104.843 54.6128 104.949 54.5648 105.04C54.5221 105.125 54.4661 105.197 54.3968 105.256C54.3541 105.229 54.2901 105.203 54.2048 105.176C54.1195 105.144 54.0261 105.117 53.9248 105.096C53.8235 105.069 53.7195 105.048 53.6128 105.032C53.5115 105.016 53.4181 105.008 53.3328 105.008C53.1568 105.008 53.0208 105.029 52.9248 105.072C52.8288 105.109 52.7808 105.171 52.7808 105.256C52.7808 105.315 52.8075 105.363 52.8608 105.4C52.9141 105.437 53.0155 105.472 53.1648 105.504L53.4128 105.56C53.9248 105.677 54.2875 105.84 54.5008 106.048C54.7195 106.251 54.8288 106.515 54.8288 106.84ZM59.3263 107.992C59.273 108.008 59.1876 108.024 59.0703 108.04C58.9583 108.056 58.841 108.064 58.7183 108.064C58.601 108.064 58.4943 108.056 58.3983 108.04C58.3076 108.024 58.2303 107.992 58.1663 107.944C58.1023 107.896 58.0516 107.832 58.0143 107.752C57.9823 107.667 57.9663 107.557 57.9663 107.424V105.648C57.9663 105.429 57.9103 105.277 57.7983 105.192C57.6916 105.101 57.5583 105.056 57.3983 105.056C57.2916 105.056 57.1903 105.069 57.0943 105.096C56.9983 105.123 56.921 105.155 56.8623 105.192V107.992C56.809 108.008 56.7236 108.024 56.6063 108.04C56.4943 108.056 56.377 108.064 56.2543 108.064C56.137 108.064 56.0303 108.056 55.9343 108.04C55.8436 108.024 55.7663 107.992 55.7023 107.944C55.6383 107.896 55.5876 107.832 55.5503 107.752C55.5183 107.667 55.5023 107.557 55.5023 107.424V102.784C55.561 102.773 55.6463 102.76 55.7583 102.744C55.8756 102.723 55.993 102.712 56.1103 102.712C56.2276 102.712 56.3316 102.72 56.4223 102.736C56.5183 102.752 56.5983 102.784 56.6623 102.832C56.7263 102.88 56.7743 102.947 56.8063 103.032C56.8436 103.112 56.8623 103.219 56.8623 103.352V104.136C56.9316 104.109 57.0356 104.08 57.1743 104.048C57.3183 104.011 57.4756 103.992 57.6463 103.992C58.1743 103.992 58.585 104.125 58.8783 104.392C59.177 104.653 59.3263 105.045 59.3263 105.568V107.992ZM64.19 106.056C64.19 106.387 64.1393 106.683 64.038 106.944C63.9367 107.2 63.7927 107.416 63.606 107.592C63.4247 107.768 63.206 107.901 62.95 107.992C62.694 108.083 62.4087 108.128 62.094 108.128C61.7793 108.128 61.494 108.08 61.238 107.984C60.982 107.888 60.7607 107.752 60.574 107.576C60.3927 107.395 60.2513 107.176 60.15 106.92C60.0487 106.664 59.998 106.376 59.998 106.056C59.998 105.741 60.0487 105.456 60.15 105.2C60.2513 104.944 60.3927 104.728 60.574 104.552C60.7607 104.371 60.982 104.232 61.238 104.136C61.494 104.04 61.7793 103.992 62.094 103.992C62.4087 103.992 62.694 104.043 62.95 104.144C63.206 104.24 63.4247 104.379 63.606 104.56C63.7927 104.736 63.9367 104.952 64.038 105.208C64.1393 105.464 64.19 105.747 64.19 106.056ZM61.39 106.056C61.39 106.381 61.4513 106.632 61.574 106.808C61.702 106.979 61.878 107.064 62.102 107.064C62.326 107.064 62.4967 106.976 62.614 106.8C62.7367 106.624 62.798 106.376 62.798 106.056C62.798 105.736 62.7367 105.491 62.614 105.32C62.4913 105.144 62.318 105.056 62.094 105.056C61.87 105.056 61.6967 105.144 61.574 105.32C61.4513 105.491 61.39 105.736 61.39 106.056ZM67.3175 105.536C67.3175 105.371 67.2695 105.251 67.1735 105.176C67.0828 105.096 66.9575 105.056 66.7975 105.056C66.6908 105.056 66.5842 105.069 66.4775 105.096C66.3762 105.123 66.2882 105.163 66.2135 105.216V107.992C66.1602 108.008 66.0748 108.024 65.9575 108.04C65.8455 108.056 65.7282 108.064 65.6055 108.064C65.4882 108.064 65.3815 108.056 65.2855 108.04C65.1948 108.024 65.1175 107.992 65.0535 107.944C64.9895 107.896 64.9388 107.832 64.9015 107.752C64.8695 107.667 64.8535 107.557 64.8535 107.424V105.024C64.8535 104.88 64.8828 104.763 64.9415 104.672C65.0055 104.581 65.0908 104.499 65.1975 104.424C65.3788 104.296 65.6055 104.192 65.8775 104.112C66.1548 104.032 66.4615 103.992 66.7975 103.992C67.4002 103.992 67.8642 104.125 68.1895 104.392C68.5148 104.653 68.6775 105.019 68.6775 105.488V107.992C68.6242 108.008 68.5388 108.024 68.4215 108.04C68.3095 108.056 68.1922 108.064 68.0695 108.064C67.9522 108.064 67.8455 108.056 67.7495 108.04C67.6588 108.024 67.5815 107.992 67.5175 107.944C67.4535 107.896 67.4028 107.832 67.3655 107.752C67.3335 107.667 67.3175 107.557 67.3175 107.424V105.536ZM72.2287 107.84C72.154 107.904 72.0367 107.96 71.8767 108.008C71.722 108.056 71.5514 108.08 71.3647 108.08C71.1407 108.08 70.9487 108.048 70.7887 107.984C70.6287 107.915 70.5194 107.821 70.4607 107.704C70.402 107.581 70.33 107.424 70.2447 107.232C70.1594 107.035 70.0687 106.816 69.9727 106.576C69.882 106.336 69.786 106.083 69.6847 105.816C69.5887 105.544 69.4954 105.269 69.4047 104.992C69.314 104.715 69.2287 104.443 69.1487 104.176C69.0687 103.909 68.9994 103.659 68.9407 103.424C69.0154 103.349 69.122 103.283 69.2607 103.224C69.4047 103.16 69.5567 103.128 69.7167 103.128C69.914 103.128 70.074 103.171 70.1967 103.256C70.3247 103.336 70.418 103.488 70.4767 103.712C70.6207 104.235 70.7647 104.736 70.9087 105.216C71.058 105.691 71.2127 106.187 71.3727 106.704H71.4207C71.5647 106.203 71.7114 105.656 71.8607 105.064C72.0154 104.472 72.162 103.883 72.3007 103.296C72.3967 103.248 72.498 103.208 72.6047 103.176C72.7167 103.144 72.842 103.128 72.9807 103.128C73.178 103.128 73.346 103.173 73.4847 103.264C73.6234 103.349 73.6927 103.493 73.6927 103.696C73.6927 103.813 73.6634 103.984 73.6047 104.208C73.5514 104.432 73.4794 104.685 73.3887 104.968C73.3034 105.245 73.2047 105.536 73.0927 105.84C72.986 106.144 72.8767 106.432 72.7647 106.704C72.658 106.971 72.5567 107.208 72.4607 107.416C72.3647 107.619 72.2874 107.76 72.2287 107.84Z" fill="#F6F6F6"/>
<defs>
<linearGradient id="paint0_linear_11_62" x1="59" y1="0" x2="59" y2="118" gradientUnits="userSpaceOnUse">
<stop stop-color="#221552"/>
<stop offset="0.63" stop-color="#291962"/>
<stop offset="1" stop-color="#4C2FB8"/>
</linearGradient>
</defs>
</svg>
